<svg xmlns="http://www.w3.org/2000/svg" viewBox="0 0 1188.87 294.19"><defs><style>.a{fill:#0275d8;}.b{fill:#fff;}</style></defs><title>logo-shape-right-v1</title><rect class="a" y="1.3" width="291.5" height="291.5"/><path class="b" d="M239.47,142.57l0,0,0,0-.06,0L192.93,62.18l-31.31,54.08L130.31,62.18,32,231.91h91.11l43.48-72.36,26.95,45.54H158.89l15.51,26.82h63.81L212.65,188,239.4,142.6h.06Zm-129.3,62.53H76.71l53.6-89.31,16.09,26.78Zm71.46-70.49,11.3-18.85L208.67,142l-11.43,19.43Z"/><path d="M465.54,1.29h11.85v130H443.5V73.5l-27.58,28.88h-3.7L384.81,73.5v57.77H350.92V1.29h12.23l50.73,56.29Z"/><path d="M563.87,102.2v29.07H498.13V102.2h16.48V30.55H499.42V1.66h63.15V30.55H547.38V102.2Z"/><path d="M645.73.18c26.86,0,55.92,14.63,60.92,49.25H674.07c-4.64-13.14-14.45-19.07-28.34-19.07-19.44,0-32.21,14.62-32.21,36.1,0,19.07,12.59,35.74,32.21,35.92,14.08,0,25.37-7,28.9-20.92h32.59c-4.82,36.65-33.89,51.1-61.48,51.1-33,.18-66.28-22-66.46-66.1C579.46,22.4,612.78.18,645.73.18Z"/><path d="M836.06,131.27H802.17v-52h-40v52H728.3V1.66h33.87v47h40v-47h33.89Z"/><path d="M942.52,115h-51.1l-7.59,16.29h-32.4v-4.81L909.75,0H924l58.51,126.46v4.81H950.12ZM916.78,52.39,902.35,86.46h29.25Z"/><path d="M1082,31.29H1034V49.62h44.06V79.06H1034v22.77h49.62v29.44h-82.58V1.66H1082Z"/><path d="M1141.85,101.46h47v29.81h-80.35V1.66h33.33Z"/><path d="M460.53,288.08v4.81h-37l-22.22-38.15H384.07v38.15H350.92V163.29h56.84c50.91.18,60.17,61.47,27.4,83.69Zm-52.77-95.17c-7.78-.18-15.93,0-23.7,0v32.4h23.7C425.72,225.31,426.65,193.09,407.77,192.91Z"/><path d="M558,192.91H510v18.33h44.06v29.44H510v22.76h49.62v29.44H477.06V163.29H558Z"/><path d="M646.66,263.83v29.07H580.94V263.83h16.48V192.17H582.24V163.29h63.13v28.88H630.18v71.66Z"/><path d="M725.55,161.8c26.84,0,55.91,14.63,60.91,49.24H753.88C749.25,197.91,739.43,192,725.55,192c-19.45,0-32.22,14.62-32.22,36.1,0,19.07,12.59,35.74,32.22,35.93,14.06,0,25.36-7,28.87-20.92H787c-4.81,36.65-33.87,51.1-61.46,51.1-33,.18-66.29-22-66.47-66.11C659.26,184,692.59,161.8,725.55,161.8Z"/><path d="M918.86,292.89H885v-52H845v52H811.1V163.29H845v47h40v-47h33.89Z"/></svg>